USFL
nRows=247
nColumns=2
inDegrees=yes
endheader
time	tib_ant_r	
2.96069	 71.354118	
2.99395	 71.350266	
3.02722	 71.355693	
3.06048	 71.352121	
3.09375	 71.370489	
3.12702	 71.370076	
3.16028	 71.377749	
3.19355	 71.393804	
3.22681	 71.382464	
3.26008	 71.379522	
3.29335	 71.385388	
3.32661	 71.358776	
3.35988	 71.332616	
3.39315	 71.357426	
3.42641	 71.365609	
3.45968	 71.380904	
3.49294	 71.377585	
3.52621	 71.372189	
3.55948	 71.374434	
3.59274	 71.375427	
3.62601	 71.375276	
3.65927	 71.364502	
3.69254	 71.381273	
3.72581	 71.364934	
3.75907	 71.373469	
3.79234	 71.379437	
3.8256	 71.379461	
3.85887	 71.360407	
3.89214	 71.340631	
3.9254	 71.324633	
3.95867	 71.328490	
3.99194	 71.337105	
4.0252	 71.337359	
4.05847	 71.359589	
4.09173	 71.370266	
4.125	 71.361889	
4.15827	 71.351577	
4.19153	 71.352287	
4.2248	 71.350808	
4.25806	 71.347959	
4.29133	 71.347360	
4.3246	 71.346005	
4.35786	 71.335560	
4.39113	 71.325655	
4.4244	 71.324395	
4.45766	 71.312447	
4.49093	 71.273110	
4.52419	 71.205717	
4.55746	 71.186188	
4.59073	 71.192150	
4.62399	 71.184008	
4.65726	 71.201854	
4.69052	 71.209500	
4.72379	 71.204762	
4.75706	 71.184632	
4.79032	 71.212885	
4.82359	 71.213724	
4.85685	 71.242675	
4.89012	 71.224577	
4.92339	 71.245469	
4.95665	 71.151863	
4.98992	 71.117918	
5.02319	 71.158788	
5.05645	 70.995331	
5.08972	 70.771134	
5.12298	 70.427317	
5.15625	 69.938362	
5.18952	 69.569271	
5.22278	 69.232061	
5.25605	 69.257723	
5.28931	 69.421901	
5.32258	 69.181736	
5.35585	 68.999015	
5.38911	 68.842280	
5.42238	 68.644419	
5.45565	 68.354993	
5.48891	 67.793140	
5.52218	 67.475650	
5.55544	 67.388535	
5.58871	 66.856489	
5.62198	 66.401562	
5.65524	 62.105276	
5.68851	 61.535582	
5.72177	 61.116816	
5.75504	 60.999435	
5.78831	 60.494161	
5.82157	 60.108957	
5.85484	 59.723995	
5.8881	 59.469551	
5.92137	 59.299317	
5.95464	 59.175258	
5.9879	 58.943286	
6.02117	 58.924983	
6.05444	 58.636681	
6.0877	 58.380520	
6.12097	 58.224965	
6.15423	 58.131951	
6.1875	 58.013729	
6.22077	 57.772443	
6.25403	 57.575839	
6.2873	 57.472034	
6.32056	 57.251310	
6.35383	 57.035728	
6.3871	 56.894738	
6.42036	 56.665591	
6.45363	 56.489105	
6.4869	 56.445280	
6.52016	 56.344176	
6.55343	 56.294938	
6.58669	 56.247338	
6.61996	 56.219827	
6.65323	 56.178963	
6.68649	 56.087032	
6.71976	 55.999664	
6.75302	 55.999876	
6.78629	 56.051903	
6.81956	 56.131969	
6.85282	 56.165818	
6.88609	 56.150439	
6.91935	 56.077391	
6.95262	 56.011926	
6.98589	 55.936020	
7.01915	 55.861854	
7.05242	 55.694442	
7.08569	 55.551110	
7.11895	 55.497796	
7.15222	 55.485345	
7.18548	 55.507485	
7.21875	 55.540022	
7.25202	 55.500950	
7.28528	 55.400804	
7.31855	 55.307946	
7.35181	 55.185059	
7.38508	 55.134241	
7.41835	 55.076335	
7.45161	 55.038005	
7.48488	 55.059451	
7.51815	 55.045343	
7.55141	 55.075864	
7.58468	 55.075048	
7.61794	 55.067314	
7.65121	 55.025793	
7.68448	 54.963541	
7.71774	 54.879795	
7.75101	 54.846817	
7.78427	 54.831881	
7.81754	 54.809873	
7.85081	 54.788356	
7.88407	 54.654640	
7.91734	 54.549110	
7.9506	 54.528771	
7.98387	 54.521869	
8.01714	 54.539035	
8.0504	 54.538446	
8.08367	 54.554017	
8.11694	 54.551371	
8.1502	 54.551983	
8.18347	 54.527810	
8.21673	 54.525794	
8.25	 54.541256	
8.28327	 54.529745	
8.31653	 54.497759	
8.3498	 54.452651	
8.38306	 54.465612	
8.41633	 54.471358	
8.4496	 54.439622	
8.48286	 54.409007	
8.51613	 54.389918	
8.5494	 54.407066	
8.58266	 54.434440	
8.61593	 54.432920	
8.64919	 54.441368	
8.68246	 54.463358	
8.71573	 54.488077	
8.74899	 54.430431	
8.78226	 54.396236	
8.81552	 54.316400	
8.84879	 54.328464	
8.88206	 54.309960	
8.91532	 54.237452	
8.94859	 54.199987	
8.98185	 54.257313	
9.01512	 54.295222	
9.04839	 54.270029	
9.08165	 54.333431	
9.11492	 54.368519	
9.14819	 54.383121	
9.18145	 54.368809	
9.21472	 54.383725	
9.24798	 54.415612	
9.28125	 54.475288	
9.31452	 54.497688	
9.34778	 54.575169	
9.38105	 54.603741	
9.41431	 54.609726	
9.44758	 54.644358	
9.48085	 54.589929	
9.51411	 54.602747	
9.54738	 54.603425	
9.58065	 54.640977	
9.61391	 54.629235	
9.64718	 54.639099	
9.68044	 54.634070	
9.71371	 54.610109	
9.74698	 54.559356	
9.78024	 54.574605	
9.81351	 54.619871	
9.84677	 54.609573	
9.88004	 54.597818	
9.91331	 54.551023	
9.94657	 54.581177	
9.97984	 54.646539	
10.0131	 54.782650	
10.0464	 54.795017	
10.0796	 54.630975	
10.1129	 54.692887	
10.1462	 54.516844	
10.1794	 54.686490	
10.2127	 60.080145	
10.246	 60.449365	
10.2792	 60.723238	
10.3125	 60.831589	
10.3458	 61.250319	
10.379	 61.424394	
10.4123	 61.417962	
10.4456	 61.504169	
10.4788	 61.600876	
10.5121	 61.624989	
10.5454	 65.264056	
10.5786	 65.235992	
10.6119	 65.238280	
10.6452	 65.233407	
10.6784	 65.279858	
10.7117	 65.315221	
10.745	 65.401822	
10.7782	 65.424715	
10.8115	 65.408778	
10.8448	 65.442093	
10.878	 65.456675	
10.9113	 65.387611	
10.9446	 65.329320	
10.9778	 65.376768	
11.0111	 65.433198	
11.0444	 65.384798	
11.0776	 65.442149	
11.1109	 65.460889	
11.1442	 65.462171	
